<svg xmlns="http://www.w3.org/2000/svg" width="980" height="560" viewBox="0 0 980 560">
<rect width="980" height="560" fill="#fcfbf7" />
<rect x="387.5" y="55.0" width="255.0" height="425.0" fill="#f59e0b" opacity="0.10" />
<line x1="90" y1="461.9" x2="940" y2="461.9" stroke="#d1d5db" stroke-width="1" />
<text x="18" y="465.9" font-size="11" fill="#111827">0.000</text>
<line x1="90" y1="326.3" x2="940" y2="326.3" stroke="#d1d5db" stroke-width="1" />
<text x="18" y="330.3" font-size="11" fill="#111827">0.015</text>
<line x1="90" y1="190.6" x2="940" y2="190.6" stroke="#d1d5db" stroke-width="1" />
<text x="18" y="194.6" font-size="11" fill="#111827">0.030</text>
<line x1="90" y1="55.0" x2="940" y2="55.0" stroke="#d1d5db" stroke-width="1" />
<text x="18" y="59.0" font-size="11" fill="#111827">0.045</text>
<line x1="132.5" y1="55" x2="132.5" y2="480" stroke="#d1d5db" stroke-width="1" />
<text x="122.5" y="504" font-size="11" fill="#111827">60</text>
<line x1="387.5" y1="55" x2="387.5" y2="480" stroke="#d1d5db" stroke-width="1" />
<text x="377.5" y="504" font-size="11" fill="#111827">90</text>
<line x1="642.5" y1="55" x2="642.5" y2="480" stroke="#d1d5db" stroke-width="1" />
<text x="632.5" y="504" font-size="11" fill="#111827">120</text>
<line x1="897.5" y1="55" x2="897.5" y2="480" stroke="#d1d5db" stroke-width="1" />
<text x="887.5" y="504" font-size="11" fill="#111827">150</text>
<line x1="90" y1="55" x2="90" y2="480" stroke="#1f2937" stroke-width="2" />
<line x1="90" y1="480" x2="940" y2="480" stroke="#1f2937" stroke-width="2" />
<line x1="90" y1="326.3" x2="940" y2="326.3" stroke="#b91c1c" stroke-width="2" />
<line x1="132.5" y1="461.9" x2="132.5" y2="461.9" stroke="#6b7280" stroke-width="2" />
<line x1="127.5" y1="461.9" x2="137.5" y2="461.9" stroke="#6b7280" stroke-width="2" />
<line x1="127.5" y1="461.9" x2="137.5" y2="461.9" stroke="#6b7280" stroke-width="2" />
<circle cx="132.5" cy="461.9" r="8.0" stroke="#6b7280" fill="#fcfbf7" stroke-width="2" />
<text x="122.5" y="447.9" font-size="11" fill="#6b7280">n=4</text>
<line x1="387.5" y1="461.9" x2="387.5" y2="461.9" stroke="#0f766e" stroke-width="2" />
<line x1="382.5" y1="461.9" x2="392.5" y2="461.9" stroke="#0f766e" stroke-width="2" />
<line x1="382.5" y1="461.9" x2="392.5" y2="461.9" stroke="#0f766e" stroke-width="2" />
<circle cx="387.5" cy="461.9" r="7.0" stroke="#0f766e" fill="#0f766e" stroke-width="2" />
<text x="377.5" y="447.9" font-size="11" fill="#0f766e">n=3</text>
<line x1="642.5" y1="244.0" x2="642.5" y2="232.2" stroke="#0f766e" stroke-width="2" />
<line x1="637.5" y1="244.0" x2="647.5" y2="244.0" stroke="#0f766e" stroke-width="2" />
<line x1="637.5" y1="232.2" x2="647.5" y2="232.2" stroke="#0f766e" stroke-width="2" />
<circle cx="642.5" cy="236.8" r="7.0" stroke="#0f766e" fill="#0f766e" stroke-width="2" />
<text x="632.5" y="222.8" font-size="11" fill="#0f766e">n=3</text>
<line x1="897.5" y1="161.7" x2="897.5" y2="87.6" stroke="#6b7280" stroke-width="2" />
<line x1="892.5" y1="161.7" x2="902.5" y2="161.7" stroke="#6b7280" stroke-width="2" />
<line x1="892.5" y1="87.6" x2="902.5" y2="87.6" stroke="#6b7280" stroke-width="2" />
<circle cx="897.5" cy="110.2" r="9.0" stroke="#6b7280" fill="#fcfbf7" stroke-width="2" />
<text x="887.5" y="96.2" font-size="11" fill="#6b7280">n=5</text>
<text x="300" y="26" font-size="18" fill="#111827">Future-Seed gain vs training budget on ratio50</text>
<text x="90" y="536" font-size="13" fill="#111827">Max training steps</text>
<text x="18" y="42" font-size="13" fill="#111827">Delta maskacc_fg_val</text>
<text x="659.5" y="172.6" font-size="12" fill="#92400e">Boundary turns on here</text>
<line x1="651.0" y1="177.1" x2="642.5" y2="236.8" stroke="#92400e" stroke-width="2" />
<text x="735" y="24" font-size="12" fill="#111827">Evidence</text>
<circle cx="740.0" cy="42.0" r="5.0" stroke="#0f766e" fill="#0f766e" stroke-width="2" />
<text x="751" y="46" font-size="11" fill="#111827">Strict comparable</text>
<circle cx="740.0" cy="60.0" r="5.0" stroke="#6b7280" fill="#fcfbf7" stroke-width="2" />
<text x="751" y="64" font-size="11" fill="#111827">Supporting</text>
<line x1="735" y1="78" x2="747" y2="78" stroke="#b91c1c" stroke-width="2" />
<text x="751" y="82" font-size="11" fill="#111827">Pass threshold (+0.015)</text>
</svg>