<svg xmlns="http://www.w3.org/2000/svg" width="1180" height="680" viewBox="0 0 1180 680">
<rect width="1180" height="680" fill="#fcfbf7" />
<text x="64" y="24" font-size="18" fill="#111827">Task5 real-video family: Future-Seed stays strong from adjacent to gap40</text>
<text x="64" y="44" font-size="12" fill="#92400e">The signal is not isolated to one temporal geometry; gain remains large across the discovered gap ladder through gap40.</text>
<rect x="56" y="82" width="520" height="520" rx="12" ry="12" fill="#fffdf8" stroke="#d6d3d1" stroke-width="2" />
<text x="74" y="98" font-size="12" fill="#111827">Delta maskacc_fg_val</text>
<text x="74" y="114" font-size="11" fill="#92400e">Primary metric</text>
<line x1="124" y1="562.0" x2="552" y2="562.0" stroke="#d1d5db" stroke-width="1" />
<text x="70" y="566.0" font-size="11" fill="#111827">0.00</text>
<line x1="124" y1="419.3" x2="552" y2="419.3" stroke="#d1d5db" stroke-width="1" />
<text x="70" y="423.3" font-size="11" fill="#111827">0.06</text>
<line x1="124" y1="276.7" x2="552" y2="276.7" stroke="#d1d5db" stroke-width="1" />
<text x="70" y="280.7" font-size="11" fill="#111827">0.12</text>
<line x1="124" y1="134.0" x2="552" y2="134.0" stroke="#d1d5db" stroke-width="1" />
<text x="70" y="138.0" font-size="11" fill="#111827">0.18</text>
<line x1="124" y1="134" x2="124" y2="562" stroke="#1f2937" stroke-width="2" />
<line x1="124" y1="562" x2="552" y2="562" stroke="#1f2937" stroke-width="2" />
<rect x="137.6" y="206.5" width="34.0" height="355.5" fill="#0f766e" stroke="#0f766e" />
<text x="142.6" y="584.0" font-size="11" fill="#111827">adjacent</text>
<text x="142.6" y="200.5" font-size="11" fill="#0f766e">0.149</text>
<rect x="198.7" y="251.7" width="34.0" height="310.3" fill="#0f766e" stroke="#0f766e" />
<text x="203.7" y="584.0" font-size="11" fill="#111827">gap4</text>
<text x="203.7" y="245.7" font-size="11" fill="#0f766e">0.131</text>
<rect x="259.9" y="249.6" width="34.0" height="312.4" fill="#0f766e" stroke="#0f766e" />
<text x="264.9" y="584.0" font-size="11" fill="#111827">gap8</text>
<text x="264.9" y="243.6" font-size="11" fill="#0f766e">0.131</text>
<rect x="321.0" y="198.4" width="34.0" height="363.6" fill="#0f766e" stroke="#0f766e" />
<text x="326.0" y="584.0" font-size="11" fill="#111827">gap16</text>
<text x="326.0" y="192.4" font-size="11" fill="#0f766e">0.153</text>
<rect x="382.2" y="239.1" width="34.0" height="322.9" fill="#0f766e" stroke="#0f766e" />
<text x="387.1" y="584.0" font-size="11" fill="#111827">gap24</text>
<text x="387.1" y="233.1" font-size="11" fill="#0f766e">0.136</text>
<rect x="443.3" y="238.9" width="34.0" height="323.1" fill="#0f766e" stroke="#0f766e" />
<text x="448.3" y="584.0" font-size="11" fill="#111827">gap32</text>
<text x="448.3" y="232.9" font-size="11" fill="#0f766e">0.136</text>
<rect x="504.4" y="212.2" width="34.0" height="349.8" fill="#0f766e" stroke="#0f766e" />
<text x="509.4" y="584.0" font-size="11" fill="#111827">gap40</text>
<text x="509.4" y="206.2" font-size="11" fill="#0f766e">0.147</text>
<rect x="606" y="82" width="520" height="520" rx="12" ry="12" fill="#fffdf8" stroke="#d6d3d1" stroke-width="2" />
<text x="624" y="98" font-size="12" fill="#111827">Validation-loss improvement (-delta_last_val_loss)</text>
<text x="624" y="114" font-size="11" fill="#92400e">Supporting evidence</text>
<line x1="674" y1="562.0" x2="1102" y2="562.0" stroke="#d1d5db" stroke-width="1" />
<text x="620" y="566.0" font-size="11" fill="#111827">0.00</text>
<line x1="674" y1="455.0" x2="1102" y2="455.0" stroke="#d1d5db" stroke-width="1" />
<text x="620" y="459.0" font-size="11" fill="#111827">0.20</text>
<line x1="674" y1="348.0" x2="1102" y2="348.0" stroke="#d1d5db" stroke-width="1" />
<text x="620" y="352.0" font-size="11" fill="#111827">0.40</text>
<line x1="674" y1="241.0" x2="1102" y2="241.0" stroke="#d1d5db" stroke-width="1" />
<text x="620" y="245.0" font-size="11" fill="#111827">0.60</text>
<line x1="674" y1="134.0" x2="1102" y2="134.0" stroke="#d1d5db" stroke-width="1" />
<text x="620" y="138.0" font-size="11" fill="#111827">0.80</text>
<line x1="674" y1="134" x2="674" y2="562" stroke="#1f2937" stroke-width="2" />
<line x1="674" y1="562" x2="1102" y2="562" stroke="#1f2937" stroke-width="2" />
<rect x="687.6" y="182.7" width="34.0" height="379.3" fill="#1d4ed8" stroke="#1d4ed8" />
<text x="692.6" y="584.0" font-size="11" fill="#111827">adjacent</text>
<text x="692.6" y="176.7" font-size="11" fill="#1d4ed8">0.709</text>
<rect x="748.7" y="192.7" width="34.0" height="369.3" fill="#1d4ed8" stroke="#1d4ed8" />
<text x="753.7" y="584.0" font-size="11" fill="#111827">gap4</text>
<text x="753.7" y="186.7" font-size="11" fill="#1d4ed8">0.690</text>
<rect x="809.9" y="196.3" width="34.0" height="365.7" fill="#1d4ed8" stroke="#1d4ed8" />
<text x="814.9" y="584.0" font-size="11" fill="#111827">gap8</text>
<text x="814.9" y="190.3" font-size="11" fill="#1d4ed8">0.684</text>
<rect x="871.0" y="197.1" width="34.0" height="364.9" fill="#1d4ed8" stroke="#1d4ed8" />
<text x="876.0" y="584.0" font-size="11" fill="#111827">gap16</text>
<text x="876.0" y="191.1" font-size="11" fill="#1d4ed8">0.682</text>
<rect x="932.2" y="211.1" width="34.0" height="350.9" fill="#1d4ed8" stroke="#1d4ed8" />
<text x="937.1" y="584.0" font-size="11" fill="#111827">gap24</text>
<text x="937.1" y="205.1" font-size="11" fill="#1d4ed8">0.656</text>
<rect x="993.3" y="219.2" width="34.0" height="342.8" fill="#1d4ed8" stroke="#1d4ed8" />
<text x="998.3" y="584.0" font-size="11" fill="#111827">gap32</text>
<text x="998.3" y="213.2" font-size="11" fill="#1d4ed8">0.641</text>
<rect x="1054.4" y="225.4" width="34.0" height="336.6" fill="#1d4ed8" stroke="#1d4ed8" />
<text x="1059.4" y="584.0" font-size="11" fill="#111827">gap40</text>
<text x="1059.4" y="219.4" font-size="11" fill="#1d4ed8">0.629</text>
<rect x="640" y="614" width="460" height="48" rx="12" ry="12" fill="#fffdf8" stroke="#d6d3d1" stroke-width="2" />
<text x="660" y="642" font-size="12" fill="#111827">Best FG gain: gap16 = +0.1529; weakest confirmed still = gap4 = +0.1305</text>
</svg>